<?xml version="1.0" standalone="no"?>
<!DOCTYPE svg PUBLIC "-//W3C//DTD SVG 20010904//EN"
 "http://www.w3.org/TR/2001/REC-SVG-20010904/DTD/svg10.dtd">
<svg version="1.0" xmlns="http://www.w3.org/2000/svg"
 width="800.000000pt" height="550.000000pt" viewBox="0 0 600.000000 550.000000"
 preserveAspectRatio="xMidYMid meet">

<g transform="translate(0.000000,567.000000) scale(0.100000,-0.100000)"
fill="#8DEEEE" stroke="none">
<path d="M0 2835 l0 -2825 178 0 c245 -1 6519 -1 6720 0 l162 0 0 2825 0 2825
-3530 0 -3530 0 0 -2825z m4207 1920 c28 -8 77 -33 109 -54 70 -47 200 -166
268 -245 47 -56 48 -57 31 -82 -21 -32 -43 -40 -67 -25 -15 9 -23 9 -34 0 -11
-9 -34 3 -116 59 -129 87 -159 102 -201 102 -34 0 -92 -35 -129 -76 -28 -32
-59 -112 -61 -157 l-2 -42 130 -5 130 -5 0 -40 0 -40 -129 -3 c-115 -2 -129
-5 -133 -21 -5 -19 -55 -31 -125 -31 -28 0 -29 -2 -26 -42 l3 -43 80 -5 c73
-5 80 -7 83 -27 3 -19 12 -23 63 -29 l60 -7 -3 -41 -3 -41 -47 -3 c-54 -4 -53
2 -37 -109 6 -43 14 -127 17 -188 l7 -110 68 -9 68 -8 -3 -42 -3 -41 -65 -5
-65 -5 -3 -35 c-6 -83 -25 -201 -44 -275 -12 -44 -21 -82 -20 -85 1 -3 28 -7
59 -10 l58 -5 0 -40 0 -40 -235 -5 -235 -5 -3 -42 -3 -43 120 0 c130 0 139 -4
99 -47 -17 -18 -21 -33 -19 -77 l2 -54 -68 -7 c-37 -3 -93 -17 -123 -30 -243
-105 -499 -91 -681 36 -32 23 -59 45 -59 50 0 4 23 10 50 14 50 7 50 7 50 44
l0 38 -87 7 c-94 7 -105 12 -123 55 -10 26 -17 29 -76 36 l-64 7 0 34 c0 30 3
34 28 34 15 0 38 6 52 13 21 11 24 18 21 58 l-2 46 47 7 c26 3 69 6 96 6 l49
0 -3 43 -3 42 -175 6 c-96 4 -178 7 -182 8 -11 1 -10 69 1 75 5 3 41 9 80 12
82 8 81 5 56 126 -17 80 -53 150 -90 174 -13 9 -57 24 -97 33 l-73 18 40 25
c161 102 631 283 763 294 30 2 57 5 60 6 4 1 14 -2 22 -5 8 -4 35 -8 60 -9
l45 -3 3 -41 3 -41 -53 -6 c-29 -4 -72 -7 -95 -7 l-43 0 0 -39 0 -38 73 -9 72
-9 0 -40 c0 -39 -1 -40 -39 -43 l-39 -3 5 -107 c6 -121 31 -205 77 -262 55
-68 96 -47 123 61 l13 54 73 9 72 9 0 38 0 37 -74 7 -75 7 -3 36 c-3 36 -4 37
-55 46 l-53 10 0 38 c0 35 2 38 28 38 72 0 68 -10 75 213 8 282 48 470 138
648 27 54 30 56 75 63 26 3 65 6 88 6 56 0 68 10 64 51 -2 25 -8 35 -23 36
-11 1 -55 5 -97 8 l-78 7 0 38 0 38 88 7 c48 4 114 15 147 25 74 23 184 25
252 5z m-527 -64 c0 -63 -12 -69 -114 -55 -46 7 -46 7 -46 45 l0 39 80 0 80 0
0 -29z m760 -506 c0 -44 0 -45 -34 -45 -18 0 -54 3 -80 6 -44 6 -46 8 -46 40
0 36 7 39 113 42 l47 2 0 -45z m-200 -136 c0 -49 -10 -53 -95 -44 l-65 7 0 38
c0 38 1 39 38 42 20 2 56 1 80 -1 42 -3 42 -3 42 -42z m-1660 -890 c0 -49 -10
-53 -96 -44 l-65 7 3 36 c3 34 6 37 38 42 19 3 54 3 78 1 42 -3 42 -3 42 -42z
m1840 -274 c0 -44 0 -45 -34 -45 -18 0 -54 3 -80 6 -44 6 -46 8 -46 40 0 36 7
39 113 42 l47 2 0 -45z m-1642 -201 c3 -41 3 -41 -35 -46 -22 -3 -57 -3 -78 1
-37 6 -40 9 -43 43 -3 36 -2 37 35 41 21 2 56 4 78 3 39 -1 40 -2 43 -42z
m1452 1 l0 -46 -77 3 -78 3 -3 37 c-3 35 -1 37 30 41 18 2 54 5 81 5 l47 2 0
-45z m-1602 -111 c3 -41 3 -41 -35 -46 -22 -3 -57 -3 -78 1 -37 6 -40 9 -43
43 -3 36 -2 37 35 41 21 2 56 4 78 3 39 -1 40 -2 43 -42z m-1048 -493 c0 -5 9
-11 20 -14 13 -3 20 -14 20 -30 0 -29 -16 -37 -71 -37 -48 0 -79 -25 -79 -62
0 -27 2 -28 49 -28 31 0 53 -5 61 -15 7 -8 19 -15 26 -15 11 0 14 -27 14 -135
l0 -135 -74 0 c-41 0 -78 5 -81 10 -3 6 -15 10 -26 10 -10 0 -19 7 -19 15 0 8
-7 15 -15 15 -8 0 -15 7 -15 15 0 8 -7 15 -15 15 -10 0 -15 10 -15 30 0 20 -5
30 -15 30 -12 0 -15 19 -15 110 0 91 3 110 15 110 9 0 15 9 15 23 0 13 13 33
30 47 16 14 29 31 30 38 0 14 160 18 160 3z m230 0 c0 -5 9 -11 20 -14 18 -5
20 -14 20 -82 l0 -76 38 3 37 3 3 88 c3 83 4 87 25 87 13 0 35 -6 50 -12 l27
-13 0 -227 0 -228 -24 0 c-14 0 -28 5 -31 10 -3 6 -15 10 -25 10 -17 0 -20 9
-22 93 l-3 92 -37 3 -38 3 0 -105 0 -106 -30 0 c-16 0 -30 4 -30 9 0 5 -10 11
-22 13 -23 3 -23 4 -26 218 -1 118 0 220 2 227 6 14 66 18 66 4z m542 -3 c13
-7 41 -29 61 -49 l37 -36 -2 -189 c-3 -211 -4 -213 -74 -179 -33 16 -34 17
-34 75 l0 60 -35 0 -34 0 -3 -72 c-3 -68 -5 -73 -27 -76 -13 -2 -28 1 -34 7
-6 6 -19 11 -29 11 -17 0 -18 14 -18 200 0 171 2 200 15 200 8 0 15 7 15 15 0
8 7 15 15 15 8 0 15 7 15 15 0 19 96 21 132 3z m288 2 c0 -5 5 -10 11 -10 6 0
30 -18 52 -40 45 -46 57 -41 57 23 0 34 2 37 30 37 17 0 30 -4 30 -10 0 -5 9
-10 20 -10 19 0 20 -7 20 -230 l0 -230 -24 0 c-14 0 -28 5 -31 10 -3 6 -15 10
-26 10 -18 0 -19 8 -19 112 l0 112 -37 34 -38 33 -3 -155 -3 -156 -29 0 c-17
0 -30 4 -30 9 0 5 -10 11 -22 13 -23 3 -23 4 -26 218 -1 118 0 220 2 227 6 15
66 18 66 3z m608 -6 c22 -11 32 -23 32 -39 0 -25 -17 -35 -61 -35 l-29 0 -2
-192 -3 -193 -24 -3 c-13 -2 -28 1 -34 7 -6 6 -19 11 -29 11 -17 0 -18 13 -18
183 l0 183 -42 15 c-37 14 -43 20 -46 47 l-3 32 114 0 c84 0 122 -4 145 -16z
m632 6 c0 -5 7 -10 15 -10 8 0 25 -10 37 -22 19 -19 22 -20 33 -5 7 10 17 17
24 17 6 0 11 7 11 15 0 20 38 19 79 -1 l31 -16 -2 -221 -3 -222 -24 -3 c-13
-2 -28 1 -34 7 -6 6 -19 11 -29 11 -16 0 -18 11 -18 125 0 114 -2 125 -18 125
-10 0 -23 5 -29 11 -26 26 -33 -4 -33 -142 l0 -139 -24 0 c-14 0 -28 5 -31 10
-3 6 -15 10 -26 10 -18 0 -19 9 -19 230 l0 230 30 0 c17 0 30 -4 30 -10z m428
-6 l32 -15 0 -180 c0 -192 3 -202 50 -162 19 16 20 29 20 195 l0 178 23 0 c13
0 38 -7 55 -16 l32 -15 0 -186 0 -185 -39 -39 c-35 -35 -44 -39 -89 -39 -28 0
-54 5 -57 10 -3 6 -15 10 -26 10 -10 0 -19 7 -19 15 0 8 -7 15 -15 15 -8 0
-15 7 -15 15 0 8 -7 15 -15 15 -13 0 -15 29 -15 200 l0 200 23 0 c13 0 38 -7
55 -16z m582 6 c0 -5 9 -10 21 -10 17 0 20 -5 17 -32 l-3 -33 -68 -3 c-51 -2
-73 -8 -87 -22 -35 -35 -25 -53 45 -89 107 -55 115 -65 115 -143 0 -64 -2 -69
-35 -103 -35 -34 -38 -35 -114 -35 -94 0 -141 19 -141 56 0 23 2 24 72 24 66
0 74 2 95 27 44 51 18 107 -59 127 -16 3 -28 11 -28 16 0 6 -8 10 -17 10 -34
1 -63 44 -63 95 0 41 5 52 38 86 l37 38 88 1 c51 0 87 -4 87 -10z m428 -6 c22
-11 32 -23 32 -39 0 -25 -17 -35 -61 -35 l-29 0 0 -155 c0 -123 3 -155 13
-155 8 0 28 -7 46 -16 24 -12 31 -22 29 -38 -3 -20 -9 -21 -117 -24 -69 -2
-118 1 -125 8 -5 5 -18 10 -28 10 -13 0 -18 8 -18 29 0 28 3 30 43 33 l42 3 3
150 2 151 -42 15 c-37 14 -43 20 -46 47 l-3 32 114 0 c84 0 122 -4 145 -16z
m402 7 c0 -5 9 -11 21 -14 16 -4 20 -12 17 -34 -3 -26 -6 -28 -56 -31 -58 -3
-92 -26 -92 -62 0 -11 -7 -23 -15 -26 -11 -5 -15 -23 -15 -75 0 -53 4 -71 15
-75 8 -4 15 -17 15 -30 0 -28 26 -44 74 -44 20 0 36 -4 36 -10 0 -5 9 -10 20
-10 16 0 20 -7 20 -30 l0 -30 -69 0 c-38 0 -80 6 -93 13 -40 20 -98 83 -98
104 0 12 -7 23 -15 27 -12 4 -15 26 -15 106 0 80 3 102 15 106 8 4 15 15 15
26 0 11 17 37 38 59 36 37 39 38 110 39 39 0 72 -4 72 -9z m-5372 -743 c2 -12
-8 -22 -32 -32 l-36 -15 0 -140 c0 -133 -1 -141 -19 -141 -11 0 -23 -4 -26
-10 -3 -5 -13 -10 -21 -10 -11 0 -14 26 -14 150 l0 150 -30 0 c-38 0 -47 21
-23 49 16 20 27 21 108 19 75 -3 90 -6 93 -20z m182 -111 c0 -120 2 -134 20
-150 44 -37 50 -20 50 131 1 125 9 152 49 152 21 0 21 -3 21 -150 0 -147 -1
-152 -25 -175 -13 -14 -31 -25 -40 -25 -8 0 -15 -4 -15 -10 0 -5 -17 -10 -38
-10 -29 0 -45 7 -65 28 -27 28 -27 30 -27 165 0 148 8 177 47 177 23 0 23 -2
23 -133z m356 97 c23 -26 34 -32 34 -20 0 22 36 56 60 56 19 0 20 -7 20 -175
0 -166 -1 -175 -19 -175 -11 0 -21 -5 -23 -12 -2 -6 -12 -9 -21 -5 -14 5 -17
21 -17 92 0 78 -2 88 -25 110 -13 14 -27 25 -30 25 -3 0 -5 -47 -5 -105 0 -97
-1 -105 -19 -105 -11 0 -21 -5 -23 -12 -2 -6 -12 -9 -21 -5 -15 6 -17 25 -17
167 0 138 2 163 18 179 26 29 50 25 88 -15z m444 11 c0 -18 -5 -25 -19 -25
-11 0 -23 -4 -26 -10 -3 -5 -26 -10 -51 -10 -44 0 -44 0 -44 -35 0 -35 0 -35
45 -35 41 0 45 -2 45 -25 0 -18 -5 -25 -19 -25 -11 0 -23 -4 -26 -10 -3 -5
-15 -10 -26 -10 -16 0 -19 -7 -19 -45 l0 -44 68 -3 c61 -3 67 -5 70 -25 3 -18
-2 -23 -17 -23 -12 0 -21 -4 -21 -10 0 -6 -37 -10 -90 -10 l-90 0 0 165 c0
208 -3 203 128 204 92 1 92 1 92 -24z m650 3 c0 -16 -11 -28 -33 -38 l-32 -15
-3 -112 -3 -113 36 0 c30 0 35 -3 35 -22 0 -33 -41 -48 -132 -48 -62 0 -78 3
-78 15 0 22 32 55 52 55 16 0 18 11 18 115 l0 115 -29 0 c-37 0 -47 15 -30 46
12 23 17 24 106 24 90 0 93 -1 93 -22z m216 -12 l34 -35 16 35 c12 25 23 34
40 34 l24 0 0 -172 0 -173 -27 -12 c-15 -7 -31 -13 -35 -13 -4 0 -8 39 -8 86
0 83 -1 88 -29 115 -16 15 -32 25 -35 22 -3 -4 -6 -49 -6 -102 0 -94 -1 -96
-27 -108 -15 -7 -31 -13 -35 -13 -14 0 -10 328 4 350 19 29 47 24 84 -14z
m772 12 c2 -12 -8 -22 -32 -32 l-36 -15 0 -140 c0 -133 -1 -141 -19 -141 -11
0 -23 -4 -26 -10 -3 -5 -13 -10 -21 -10 -11 0 -14 26 -14 150 l0 150 -30 0
c-38 0 -49 24 -24 51 16 17 28 19 108 17 76 -3 91 -6 94 -20z m295 -6 c26 -27
27 -32 27 -148 0 -111 -2 -121 -24 -146 -13 -16 -30 -28 -39 -28 -9 0 -19 -4
-22 -10 -13 -21 -71 -11 -98 18 -26 27 -27 31 -27 149 l0 121 36 36 c30 30 43
36 78 36 33 0 48 -6 69 -28z m547 -17 c0 -25 4 -45 9 -45 5 0 12 -12 15 -26 7
-25 8 -26 21 -8 8 11 15 34 15 52 0 36 30 72 60 72 17 0 20 -7 20 -45 0 -25
-4 -45 -10 -45 -5 0 -10 -11 -10 -24 0 -13 -7 -26 -15 -30 -8 -3 -15 -15 -15
-26 0 -11 -4 -20 -10 -20 -6 0 -10 -33 -10 -80 0 -72 -2 -80 -19 -80 -11 0
-21 -5 -23 -12 -2 -6 -12 -9 -21 -5 -14 5 -17 20 -17 81 0 41 -4 78 -10 81 -5
3 -10 15 -10 26 0 10 -4 19 -10 19 -5 0 -10 8 -10 19 0 10 -7 24 -15 31 -36
30 -5 107 43 109 20 1 22 -4 22 -44z m441 13 c28 -32 29 -36 29 -147 0 -113 0
-114 -30 -142 -16 -16 -37 -29 -45 -29 -8 0 -15 -4 -15 -10 0 -22 -70 -10
-100 17 -30 26 -30 26 -30 140 0 101 3 117 23 148 12 19 28 35 35 35 6 0 12 5
12 10 0 6 21 10 46 10 40 0 50 -5 75 -32z m209 -106 c0 -139 0 -139 26 -152
38 -21 44 -3 44 135 1 128 9 155 49 155 21 0 21 -3 21 -150 0 -147 -1 -152
-25 -175 -13 -14 -31 -25 -39 -25 -8 0 -18 -4 -21 -10 -13 -21 -71 -11 -98 18
-27 28 -27 30 -27 165 0 148 8 177 47 177 23 0 23 -1 23 -138z m440 111 c26
-22 30 -34 30 -75 0 -38 -5 -55 -25 -76 -29 -31 -32 -47 -10 -56 8 -3 15 -15
15 -26 0 -11 5 -20 10 -20 6 0 10 -16 10 -35 0 -28 -4 -35 -19 -35 -11 0 -21
-5 -23 -12 -7 -19 -38 -1 -38 22 0 11 -4 20 -10 20 -5 0 -10 6 -10 13 0 18
-24 67 -32 67 -5 0 -8 -25 -8 -55 0 -48 -3 -55 -19 -55 -11 0 -21 -5 -23 -12
-2 -6 -12 -9 -21 -5 -15 6 -17 25 -17 162 0 196 4 204 98 205 53 0 66 -4 92
-27z m540 -37 c0 -36 5 -68 10 -71 6 -3 10 -2 10 4 0 6 11 13 25 17 21 5 25
12 25 43 1 43 19 71 49 71 21 0 21 -3 21 -173 l0 -172 -30 -13 c-26 -12 -32
-11 -52 7 -27 26 -29 26 -73 1 -20 -11 -40 -20 -45 -20 -6 0 -10 65 -10 165 0
177 6 205 47 205 22 0 23 -4 23 -64z m444 38 c25 -26 26 -30 26 -151 0 -118
-1 -125 -25 -148 -13 -14 -31 -25 -39 -25 -8 0 -18 -4 -21 -10 -13 -21 -71
-11 -98 18 -26 27 -27 32 -27 148 0 111 2 121 24 147 13 15 28 27 35 27 6 0
11 5 11 10 0 6 20 10 44 10 33 0 49 -6 70 -26z m326 -1 c26 -23 30 -33 30 -79
0 -42 -5 -56 -25 -75 -28 -27 -32 -44 -10 -53 8 -3 15 -15 15 -26 0 -11 5 -20
10 -20 6 0 10 -15 10 -33 0 -26 -6 -35 -30 -45 -34 -15 -50 -9 -50 19 0 10 -4
19 -10 19 -5 0 -10 6 -10 13 0 18 -24 67 -32 67 -5 0 -8 -24 -8 -52 0 -48 -3
-54 -27 -65 -15 -7 -31 -13 -35 -13 -14 0 -10 328 4 350 11 17 24 20 75 20 54
0 67 -4 93 -27z m220 -123 l0 -149 68 -3 c61 -3 67 -5 70 -25 3 -18 -2 -23
-17 -23 -12 0 -21 -4 -21 -10 0 -6 -37 -10 -90 -10 l-90 0 0 165 c0 141 2 168
17 185 10 11 28 20 40 20 23 0 23 -1 23 -150z m414 124 c14 -15 26 -35 26 -44
0 -10 7 -20 15 -24 12 -4 15 -23 15 -81 0 -58 -3 -77 -15 -81 -8 -4 -15 -15
-15 -26 0 -22 -43 -68 -64 -68 -8 0 -18 -4 -21 -10 -3 -5 -28 -10 -56 -10
l-49 0 0 167 c0 197 2 203 85 203 43 0 57 -5 79 -26z"/>
<path d="M1441 1839 c-1 -60 2 -78 14 -83 8 -3 15 -17 15 -31 0 -19 5 -25 20
-25 19 0 21 5 18 62 -3 55 -6 64 -28 75 -16 8 -27 24 -31 45 -4 22 -7 8 -8
-43z"/>
<path d="M2288 1981 c-13 -13 -18 -34 -18 -74 l0 -57 35 0 35 0 0 69 c0 54 -4
70 -16 75 -19 7 -15 9 -36 -13z"/>
<path d="M3157 1283 c-4 -3 -7 -50 -7 -103 0 -93 1 -97 26 -110 36 -20 44 -3
44 100 0 73 -3 88 -20 103 -22 18 -33 21 -43 10z"/>
<path d="M4140 1189 c0 -105 12 -138 45 -125 12 4 15 26 15 102 0 80 -3 99
-17 110 -38 29 -43 18 -43 -87z"/>
<path d="M4790 1245 c0 -43 1 -45 30 -45 27 0 30 3 30 31 0 33 -19 59 -44 59
-12 0 -16 -11 -16 -45z"/>
<path d="M5777 1283 c-4 -3 -7 -50 -7 -103 0 -93 1 -97 26 -110 36 -20 44 -3
44 101 0 71 -3 89 -18 102 -20 18 -34 21 -45 10z"/>
<path d="M6100 1245 c0 -43 1 -45 30 -45 27 0 30 3 30 31 0 33 -19 59 -44 59
-12 0 -16 -11 -16 -45z"/>
<path d="M6760 1175 c0 -127 11 -147 43 -75 18 44 23 120 7 120 -5 0 -10 8
-10 18 0 10 -9 25 -20 35 -20 17 -20 16 -20 -98z"/>
</g>
</svg>
